<svg width="34" height="30" viewBox="0 0 34 30" fill="none" xmlns="http://www.w3.org/2000/svg">
                                            <path opacity="0.4" d="M3.66634 10H0.333008V25L7.51773 28.5924C9.36914 29.5181 11.4106 30 13.4806 30H26.9997C28.8406 30 30.333 28.5076 30.333 26.6667C30.333 24.8257 28.8406 23.3333 26.9997 23.3333H24.3604C22.8079 23.3333 21.2768 22.9719 19.8882 22.2776L14.9863 19.8267C15.3068 19.5315 15.5716 19.1655 15.7544 18.739C16.4436 17.1307 15.7065 15.2676 14.1034 14.5662L3.66634 10Z" fill="white"></path>
                                            <path fill-rule="evenodd" clip-rule="evenodd" d="M20.666 0C19.5614 0 18.666 0.89543 18.666 2V13C18.666 14.1046 19.5614 15 20.666 15H31.666C32.7706 15 33.666 14.1046 33.666 13V2C33.666 0.895431 32.7706 0 31.666 0H20.666ZM27.8327 6.25C28.523 6.25 29.0827 5.69036 29.0827 5C29.0827 4.30964 28.523 3.75 27.8327 3.75H24.4993C23.809 3.75 23.2493 4.30964 23.2493 5C23.2493 5.69036 23.809 6.25 24.4993 6.25H27.8327Z" fill="white"></path>
                                        </svg>