<svg width="34" height="31" viewBox="0 0 34 31" fill="none" xmlns="http://www.w3.org/2000/svg">
                                            <path opacity="0.4" d="M13.6663 0H6.99967C3.31778 0 0.333008 2.98477 0.333008 6.66667V20C0.333008 23.1087 2.46079 25.7204 5.33942 26.4583C5.44698 24.7144 6.89538 23.3333 8.66634 23.3333C10.5073 23.3333 11.9997 24.8257 11.9997 26.6667H20.333V6.66667C20.333 2.98477 17.3482 0 13.6663 0Z" fill="white"></path>
                                            <path d="M20.333 26.668V6.66797H25.6815C26.5284 6.66797 27.3435 6.9903 27.9613 7.56951L32.6128 11.9303C33.285 12.5604 33.6663 13.4407 33.6663 14.3621V23.3346C33.6663 25.1756 32.174 26.668 30.333 26.668H20.333Z" fill="white"></path>
                                            <path d="M12.8333 26.6667C12.8333 28.9679 10.9679 30.8333 8.66667 30.8333C6.36548 30.8333 4.5 28.9679 4.5 26.6667C4.5 26.5792 4.5027 26.4923 4.50801 26.4062C4.64247 24.2263 6.45296 22.5 8.66667 22.5C10.9679 22.5 12.8333 24.3655 12.8333 26.6667Z" fill="white"></path>
                                            <path opacity="0.4" d="M31.1587 26.6667C31.1587 28.9679 29.2932 30.8333 26.992 30.8333C24.6908 30.8333 22.8253 28.9679 22.8253 26.6667C22.8253 26.5792 22.828 26.4923 22.8333 26.4062C22.9678 24.2263 24.7783 22.5 26.992 22.5C29.2932 22.5 31.1587 24.3655 31.1587 26.6667Z" fill="white"></path>
                                            <path fill-rule="evenodd" clip-rule="evenodd" d="M9.08301 8.33203C9.08301 7.64168 9.64265 7.08203 10.333 7.08203L13.6663 7.08203C14.3567 7.08203 14.9163 7.64168 14.9163 8.33203C14.9163 9.02239 14.3567 9.58203 13.6663 9.58203L10.333 9.58203C9.64265 9.58203 9.08301 9.02239 9.08301 8.33203Z" fill="white"></path>
                                            <path fill-rule="evenodd" clip-rule="evenodd" d="M5.75 15C5.75 14.3096 6.30964 13.75 7 13.75L13.6667 13.75C14.357 13.75 14.9167 14.3096 14.9167 15C14.9167 15.6904 14.357 16.25 13.6667 16.25H7C6.30964 16.25 5.75 15.6904 5.75 15Z" fill="white"></path>
                                        </svg>