<svg width="24" height="34" viewBox="0 0 24 34" fill="none" xmlns="http://www.w3.org/2000/svg">
                                            <path opacity="0.4" d="M16.6667 0.332031H3.33333C1.49238 0.332031 0 1.82442 0 3.66537V30.332C0 32.173 1.49238 33.6654 3.33333 33.6654H16.6667C18.5076 33.6654 20 32.173 20 30.332V3.66536C20 1.82442 18.5076 0.332031 16.6667 0.332031Z" fill="white"></path>
                                            <path d="M10 8.66406H20C21.8409 8.66406 23.3333 10.1564 23.3333 11.9974V18.6641C23.3333 20.505 21.8409 21.9974 20 21.9974H10V8.66406Z" fill="white"></path>
                                            <path d="M11.6663 28.6667C11.6663 29.5871 10.9201 30.3333 9.99967 30.3333C9.0792 30.3333 8.33301 29.5871 8.33301 28.6667C8.33301 27.7462 9.0792 27 9.99967 27C10.9201 27 11.6663 27.7462 11.6663 28.6667Z" fill="white"></path>
                                            <path opacity="0.4" d="M9.99968 14.5L23.333 14.5L23.333 12L9.99968 12L9.99968 14.5Z" fill="white"></path>
                                        </svg>