<svg width="30" height="34" viewBox="0 0 30 34" fill="none" xmlns="http://www.w3.org/2000/svg">
                                            <path fill-rule="evenodd" clip-rule="evenodd" d="M20.7371 23.5034C23.8364 20.3264 26.6663 15.5679 26.6663 11.7606C26.6663 5.44878 21.443 0.332031 14.9997 0.332031C8.55635 0.332031 3.33301 5.44878 3.33301 11.7606C3.33301 15.5679 6.16294 20.3264 9.26228 23.5034C11.3011 25.5932 13.4566 26.9987 14.9997 26.9987C16.5428 26.9987 18.6982 25.5932 20.7371 23.5034ZM14.9997 15.332C16.8406 15.332 18.333 13.8396 18.333 11.9987C18.333 10.1577 16.8406 8.66536 14.9997 8.66536C13.1587 8.66536 11.6663 10.1577 11.6663 11.9987C11.6663 13.8396 13.1587 15.332 14.9997 15.332Z" fill="white"></path>
                                            <path opacity="0.4" fill-rule="evenodd" clip-rule="evenodd" d="M6.75902 24.4883C2.6873 25.3824 0 26.9199 0 28.6668C0 31.4282 6.71573 33.6668 15 33.6668C23.2843 33.6668 30 31.4282 30 28.6668C30 26.9199 27.3127 25.3824 23.241 24.4883C23.0051 24.7502 22.7668 25.0045 22.5269 25.2504C21.4064 26.399 20.2024 27.4143 19.0016 28.1599C17.8569 28.8707 16.455 29.5 15 29.5C13.545 29.5 12.1431 28.8707 10.9984 28.1599C9.7976 27.4143 8.59362 26.399 7.47312 25.2504C7.23321 25.0045 6.99487 24.7502 6.75902 24.4883Z" fill="white"></path>
                                        </svg>